# xmcd
#
# Track frame offsets: 
#        183
#        10215
#        22068
#        35270
#        53513
#        64898
#        79720
#        90195
#        102768
#        122853
#        136425
#        152580
#        165835
#        178235
#        189148
#        207623
#
# Disc length: 2919 seconds
#
# Revision: 0
# Processed by: cddbd v1.5.2PL0 Copyright (c) Steve Scherf et al.
# Submitted via: ExactAudioCopyFreeDBPlugin 1.0
#
DISCID=c40b6510
DTITLE=John Lee Hooker - The Best of John Lee Hooker
DYEAR=1998
DGENRE=Blues
TTITLE0=Dimples
TTITLE1=Boogie Chillun
TTITLE2=I'm So Excited
TTITLE3=Sally Mae
TTITLE4=This is Hip
TTITLE5=Moanin' Blues
TTITLE6=Big Legs, Tight Skirt
TTITLE7=Crawlin' Kingsnake
TTITLE8=Nightmare
TTITLE9=Baby Lee
TTITLE10=My First Wife Left me
TTITLE11=I Like to see You Walk
TTITLE12=I'm in the Mood
TTITLE13=Maudie
TTITLE14=Tupelo (Live)
TTITLE15=Boom Boom
EXTD=
EXTT0=
EXTT1=
EXTT2=
EXTT3=
EXTT4=
EXTT5=
EXTT6=
EXTT7=
EXTT8=
EXTT9=
EXTT10=
EXTT11=
EXTT12=
EXTT13=
EXTT14=
EXTT15=
PLAYORDER=
